<mxfile host="app.diagrams.net" modified="2023-12-25T10:30:25.715Z" agent="Mozilla/5.0 (Windows NT 10.0; Win64; x64) AppleWebKit/537.36 (KHTML, like Gecko) Chrome/120.0.0.0 Safari/537.36 Edg/120.0.0.0" etag="81wE3F9LPngEJfaflooI" version="22.1.11" type="github">
  <diagram id="C5RBs43oDa-KdzZeNtuy" name="Page-1">
    <mxGraphModel dx="986" dy="1636" grid="1" gridSize="10" guides="1" tooltips="1" connect="1" arrows="1" fold="1" page="1" pageScale="1" pageWidth="827" pageHeight="1169" math="0" shadow="0">
      <root>
        <mxCell id="WIyWlLk6GJQsqaUBKTNV-0" />
        <mxCell id="WIyWlLk6GJQsqaUBKTNV-1" parent="WIyWlLk6GJQsqaUBKTNV-0" />
        <mxCell id="sLOIjYW8aNZiZ2h4gdlN-2" style="edgeStyle=orthogonalEdgeStyle;rounded=0;orthogonalLoop=1;jettySize=auto;html=1;entryX=0.5;entryY=0;entryDx=0;entryDy=0;" edge="1" parent="WIyWlLk6GJQsqaUBKTNV-1" source="sLOIjYW8aNZiZ2h4gdlN-0" target="sLOIjYW8aNZiZ2h4gdlN-1">
          <mxGeometry relative="1" as="geometry" />
        </mxCell>
        <mxCell id="sLOIjYW8aNZiZ2h4gdlN-0" value="Start" style="ellipse;whiteSpace=wrap;html=1;" vertex="1" parent="WIyWlLk6GJQsqaUBKTNV-1">
          <mxGeometry x="310" y="-10" width="120" height="80" as="geometry" />
        </mxCell>
        <mxCell id="sLOIjYW8aNZiZ2h4gdlN-14" value="" style="edgeStyle=orthogonalEdgeStyle;rounded=0;orthogonalLoop=1;jettySize=auto;html=1;" edge="1" parent="WIyWlLk6GJQsqaUBKTNV-1" source="sLOIjYW8aNZiZ2h4gdlN-1" target="sLOIjYW8aNZiZ2h4gdlN-13">
          <mxGeometry relative="1" as="geometry" />
        </mxCell>
        <mxCell id="sLOIjYW8aNZiZ2h4gdlN-1" value="string[] arr&lt;br&gt;string[] new_arr&lt;br&gt;int i&lt;br&gt;int count" style="shape=parallelogram;perimeter=parallelogramPerimeter;whiteSpace=wrap;html=1;fixedSize=1;" vertex="1" parent="WIyWlLk6GJQsqaUBKTNV-1">
          <mxGeometry x="310" y="110" width="120" height="60" as="geometry" />
        </mxCell>
        <mxCell id="sLOIjYW8aNZiZ2h4gdlN-6" value="Yes" style="edgeStyle=orthogonalEdgeStyle;rounded=0;orthogonalLoop=1;jettySize=auto;html=1;" edge="1" parent="WIyWlLk6GJQsqaUBKTNV-1" source="sLOIjYW8aNZiZ2h4gdlN-3" target="sLOIjYW8aNZiZ2h4gdlN-5">
          <mxGeometry relative="1" as="geometry" />
        </mxCell>
        <mxCell id="sLOIjYW8aNZiZ2h4gdlN-17" value="No" style="edgeStyle=orthogonalEdgeStyle;rounded=0;orthogonalLoop=1;jettySize=auto;html=1;" edge="1" parent="WIyWlLk6GJQsqaUBKTNV-1" source="sLOIjYW8aNZiZ2h4gdlN-3" target="sLOIjYW8aNZiZ2h4gdlN-16">
          <mxGeometry relative="1" as="geometry" />
        </mxCell>
        <mxCell id="sLOIjYW8aNZiZ2h4gdlN-3" value="i &amp;lt; arr.Length" style="rhombus;whiteSpace=wrap;html=1;" vertex="1" parent="WIyWlLk6GJQsqaUBKTNV-1">
          <mxGeometry x="310" y="330" width="120" height="80" as="geometry" />
        </mxCell>
        <mxCell id="sLOIjYW8aNZiZ2h4gdlN-8" value="Yes" style="edgeStyle=orthogonalEdgeStyle;rounded=0;orthogonalLoop=1;jettySize=auto;html=1;" edge="1" parent="WIyWlLk6GJQsqaUBKTNV-1" source="sLOIjYW8aNZiZ2h4gdlN-5" target="sLOIjYW8aNZiZ2h4gdlN-7">
          <mxGeometry relative="1" as="geometry" />
        </mxCell>
        <mxCell id="sLOIjYW8aNZiZ2h4gdlN-10" value="No" style="edgeStyle=orthogonalEdgeStyle;rounded=0;orthogonalLoop=1;jettySize=auto;html=1;" edge="1" parent="WIyWlLk6GJQsqaUBKTNV-1" source="sLOIjYW8aNZiZ2h4gdlN-5" target="sLOIjYW8aNZiZ2h4gdlN-9">
          <mxGeometry relative="1" as="geometry" />
        </mxCell>
        <mxCell id="sLOIjYW8aNZiZ2h4gdlN-5" value="arr[i].Length &amp;lt;= 3" style="rhombus;whiteSpace=wrap;html=1;" vertex="1" parent="WIyWlLk6GJQsqaUBKTNV-1">
          <mxGeometry x="320" y="450" width="100" height="80" as="geometry" />
        </mxCell>
        <mxCell id="sLOIjYW8aNZiZ2h4gdlN-11" style="edgeStyle=orthogonalEdgeStyle;rounded=0;orthogonalLoop=1;jettySize=auto;html=1;entryX=0.5;entryY=1;entryDx=0;entryDy=0;" edge="1" parent="WIyWlLk6GJQsqaUBKTNV-1" source="sLOIjYW8aNZiZ2h4gdlN-7" target="sLOIjYW8aNZiZ2h4gdlN-9">
          <mxGeometry relative="1" as="geometry" />
        </mxCell>
        <mxCell id="sLOIjYW8aNZiZ2h4gdlN-7" value="new_arr[count] = arr[i]&lt;br&gt;count++" style="whiteSpace=wrap;html=1;" vertex="1" parent="WIyWlLk6GJQsqaUBKTNV-1">
          <mxGeometry x="310" y="585" width="120" height="60" as="geometry" />
        </mxCell>
        <mxCell id="sLOIjYW8aNZiZ2h4gdlN-12" style="edgeStyle=orthogonalEdgeStyle;rounded=0;orthogonalLoop=1;jettySize=auto;html=1;entryX=0;entryY=0.5;entryDx=0;entryDy=0;" edge="1" parent="WIyWlLk6GJQsqaUBKTNV-1" source="sLOIjYW8aNZiZ2h4gdlN-9" target="sLOIjYW8aNZiZ2h4gdlN-3">
          <mxGeometry relative="1" as="geometry">
            <Array as="points">
              <mxPoint x="200" y="370" />
            </Array>
          </mxGeometry>
        </mxCell>
        <mxCell id="sLOIjYW8aNZiZ2h4gdlN-9" value="i++" style="whiteSpace=wrap;html=1;" vertex="1" parent="WIyWlLk6GJQsqaUBKTNV-1">
          <mxGeometry x="130" y="460" width="120" height="60" as="geometry" />
        </mxCell>
        <mxCell id="sLOIjYW8aNZiZ2h4gdlN-15" value="" style="edgeStyle=orthogonalEdgeStyle;rounded=0;orthogonalLoop=1;jettySize=auto;html=1;" edge="1" parent="WIyWlLk6GJQsqaUBKTNV-1" source="sLOIjYW8aNZiZ2h4gdlN-13" target="sLOIjYW8aNZiZ2h4gdlN-3">
          <mxGeometry relative="1" as="geometry" />
        </mxCell>
        <mxCell id="sLOIjYW8aNZiZ2h4gdlN-13" value="ReadMatrix(arr)" style="whiteSpace=wrap;html=1;" vertex="1" parent="WIyWlLk6GJQsqaUBKTNV-1">
          <mxGeometry x="310" y="200" width="120" height="60" as="geometry" />
        </mxCell>
        <mxCell id="sLOIjYW8aNZiZ2h4gdlN-19" value="" style="edgeStyle=orthogonalEdgeStyle;rounded=0;orthogonalLoop=1;jettySize=auto;html=1;" edge="1" parent="WIyWlLk6GJQsqaUBKTNV-1" source="sLOIjYW8aNZiZ2h4gdlN-16" target="sLOIjYW8aNZiZ2h4gdlN-18">
          <mxGeometry relative="1" as="geometry" />
        </mxCell>
        <mxCell id="sLOIjYW8aNZiZ2h4gdlN-16" value="WriteMatrix(new_arr)" style="whiteSpace=wrap;html=1;" vertex="1" parent="WIyWlLk6GJQsqaUBKTNV-1">
          <mxGeometry x="560" y="430" width="120" height="60" as="geometry" />
        </mxCell>
        <mxCell id="sLOIjYW8aNZiZ2h4gdlN-18" value="End" style="ellipse;whiteSpace=wrap;html=1;" vertex="1" parent="WIyWlLk6GJQsqaUBKTNV-1">
          <mxGeometry x="580" y="560" width="80" height="80" as="geometry" />
        </mxCell>
      </root>
    </mxGraphModel>
  </diagram>
</mxfile>
